<svg id="Layer_1" data-name="Layer 1" xmlns="http://www.w3.org/2000/svg" viewBox="0 0 208.49 38.86"><defs><style>.cls-1{fill:#1e2b3c;}</style></defs><path class="cls-1" d="M19.73,7.07H7.56a.5.5,0,0,0-.5.5V31.3a.51.51,0,0,0,.5.5H19.73a12.37,12.37,0,0,0,0-24.73m1.19,21a8.8,8.8,0,1,1,7.18-7.18,8.8,8.8,0,0,1-7.18,7.18"/><path class="cls-1" d="M42.45,28.38a.11.11,0,0,1-.12-.11V11.9a.11.11,0,0,1,.12-.12h6.09c5,0,7.38,3.51,7.38,8.47s-2.43,8.13-7.38,8.13Zm6.09-2c3.16,0,5-2.12,5-6.13s-1.86-6.47-5-6.47H44.69a.11.11,0,0,0-.11.12V26.26a.11.11,0,0,0,.11.12Z"/><path class="cls-1" d="M70,28.27a.1.1,0,0,1-.11.11h-.69c-1.34,0-2.14-.33-2.5-1.08a.12.12,0,0,0-.21-.05,6.06,6.06,0,0,1-4.2,1.37c-3.16,0-4.72-1.53-4.72-3.77,0-2.06,1.72-3.59,5.19-3.59h2.64a.78.78,0,0,0,.78-.78c0-1-.23-2.26-3-2.26-2,0-3,.94-3,2.14a.12.12,0,0,1-.12.12H58a.12.12,0,0,1-.12-.12c0-2.78,2.52-4.15,5.19-4.15,3.25,0,5.28,1.39,5.28,4.27V25.6a.79.79,0,0,0,.78.78h.69a.11.11,0,0,1,.11.12Zm-3.82-5.12A.12.12,0,0,0,66,23h-3.3c-2.5,0-2.95,1-2.95,1.82s.59,1.76,2.48,1.76c2.85,0,3.84-1.69,3.89-3.13Z"/><path class="cls-1" d="M77.49,28.27c0,.07,0,.11-.12.11H75.56c-2,0-3.09-.85-3.09-2.78V18.34a.11.11,0,0,0-.12-.12h-2.1a.12.12,0,0,1-.12-.12V16.57a.11.11,0,0,1,.12-.12h2.1a.12.12,0,0,0,.12-.12V13.15a.11.11,0,0,1,.12-.12h2a.11.11,0,0,1,.12.12v3.18a.12.12,0,0,0,.12.12h2.54a.11.11,0,0,1,.12.12V18.1a.11.11,0,0,1-.12.12H74.83a.11.11,0,0,0-.12.12V25.2c0,.73.33,1.18,1.27,1.18h1.39a.11.11,0,0,1,.12.12Z"/><path class="cls-1" d="M91.44,28.27a.11.11,0,0,1-.12.11h-.69c-1.34,0-2.14-.33-2.5-1.08a.12.12,0,0,0-.21-.05,6,6,0,0,1-4.2,1.37c-3.16,0-4.72-1.53-4.72-3.77,0-2.06,1.73-3.59,5.19-3.59h2.65a.77.77,0,0,0,.77-.78c0-1-.23-2.26-3-2.26-2,0-2.95.94-2.95,2.14a.11.11,0,0,1-.12.12h-2a.12.12,0,0,1-.12-.12c0-2.78,2.53-4.15,5.19-4.15,3.26,0,5.29,1.39,5.29,4.27V25.6a.78.78,0,0,0,.77.78h.69a.12.12,0,0,1,.12.12Zm-3.83-5.12A.11.11,0,0,0,87.5,23H84.19c-2.5,0-2.94,1-2.94,1.82s.58,1.76,2.47,1.76c2.86,0,3.85-1.69,3.89-3.13Z"/><path class="cls-1" d="M95.64,28.27a.11.11,0,0,1-.12.11h-2a.11.11,0,0,1-.12-.11V11.9a.11.11,0,0,1,.12-.12h2a.11.11,0,0,1,.12.12Z"/><path class="cls-1" d="M110.57,28.27a.1.1,0,0,1-.11.11h-.69c-1.34,0-2.15-.33-2.5-1.08a.12.12,0,0,0-.21-.05,6.06,6.06,0,0,1-4.2,1.37c-3.16,0-4.72-1.53-4.72-3.77,0-2.06,1.72-3.59,5.19-3.59H106a.78.78,0,0,0,.78-.78c0-1-.23-2.26-3-2.26-2,0-2.95.94-2.95,2.14a.12.12,0,0,1-.12.12h-2a.12.12,0,0,1-.12-.12c0-2.78,2.52-4.15,5.19-4.15,3.25,0,5.28,1.39,5.28,4.27V25.6a.79.79,0,0,0,.78.78h.69a.11.11,0,0,1,.11.12Zm-3.82-5.12a.12.12,0,0,0-.12-.12h-3.3c-2.5,0-3,1-3,1.82s.59,1.76,2.48,1.76c2.85,0,3.84-1.69,3.89-3.13Z"/><path class="cls-1" d="M114.42,16.45c.07,0,.1,0,.12.12l.24,1.06c0,.14.21.09.26,0a3.62,3.62,0,0,1,3.09-1.44c3.42,0,5.14,2.5,5.14,5.57v6.49a.11.11,0,0,1-.12.11h-2a.11.11,0,0,1-.12-.11V21.78c0-1.79-.8-3.56-3.14-3.56-2,0-3.11,1.72-3.11,3.56v6.49a.11.11,0,0,1-.12.11h-2a.1.1,0,0,1-.11-.11V16.57c0-.08,0-.12.11-.12Z"/><path class="cls-1" d="M135.26,28.38c-.07,0-.1,0-.12-.11l-.24-.95c0-.14-.16-.12-.23,0a5.75,5.75,0,0,1-3.38,1.34c-3.44,0-5.61-2.52-5.61-6.2s2.17-6.21,5.61-6.21a5.29,5.29,0,0,1,3.38,1.35c.12.14.23,0,.23,0V11.9a.11.11,0,0,1,.12-.12h2c.07,0,.11,0,.11.12V28.27a.1.1,0,0,1-.11.11Zm-3.73-1.77c2.15,0,3.37-1.74,3.37-4.19s-1.22-4.2-3.37-4.2-3.61,1.74-3.61,4.2S129.27,26.61,131.53,26.61Z"/><path class="cls-1" d="M147.67,20.48a.12.12,0,0,1-.12-.12c0-1.29-1-2.14-3-2.14s-2.55.78-2.55,1.51c0,1.34,1.7,1.37,2.88,1.53,2.36.33,5.19.54,5.19,3.56,0,2.69-2.24,3.8-5.19,3.8-3.58,0-5.33-1.89-5.33-4.15a.12.12,0,0,1,.12-.12h2a.13.13,0,0,1,.14.12c0,1.18,1.2,2.14,3.09,2.14,1.21,0,2.95-.25,2.95-1.79,0-1.34-2-1.44-2.95-1.55-2.26-.26-5.12-.62-5.12-3.54,0-1.94,1.87-3.52,4.79-3.52s5.19,1.37,5.19,4.15c0,.07,0,.12-.09.12Z"/><path class="cls-1" d="M152.86,28.38a.1.1,0,0,1-.11-.11V11.9c0-.08,0-.12.11-.12h2a.11.11,0,0,1,.12.12v5.61c0,.09.11.19.23,0a5.25,5.25,0,0,1,3.37-1.35c3.45,0,5.62,2.53,5.62,6.21s-2.17,6.2-5.62,6.2a5.74,5.74,0,0,1-3.37-1.34c-.07-.08-.19-.1-.23,0l-.24.95c0,.07-.05.11-.12.11Zm5.5-10.16c-2.15,0-3.37,1.74-3.37,4.2s1.22,4.19,3.37,4.19S162,24.87,162,22.42,160.62,18.22,158.36,18.22Z"/><path class="cls-1" d="M164.78,31.17a.12.12,0,0,1,.12-.12h2.66c1.4,0,1.82-.9,1.4-2.15l-4.2-12.33c0-.1.07-.12.14-.12H167c.08,0,.1,0,.12.12l3.09,9.48a.12.12,0,0,0,.24,0l3.11-9.48c0-.08.05-.12.12-.12h2.15c.07,0,.14,0,.12.12l-4.72,13.87c-.66,1.91-1.39,2.62-3.31,2.62H164.9a.12.12,0,0,1-.12-.12Z"/><path class="cls-1" d="M179.13,23.22a.12.12,0,0,0-.12.12,3.21,3.21,0,0,0,3.35,3.27,3,3,0,0,0,3-1.65.17.17,0,0,1,.17-.11h2.1c.07,0,.14,0,.12.11-.62,2.32-2.72,3.66-5.38,3.66-3.54,0-5.73-2.52-5.73-6.2s2.07-6.21,5.73-6.21,5.75,2.53,5.75,6.21a3.45,3.45,0,0,1-.11.68c0,.07-.05.12-.12.12Zm3.23-5A3.33,3.33,0,0,0,179,21.33a.13.13,0,0,0,.12.12h6.41a.12.12,0,0,0,.12-.12A3.12,3.12,0,0,0,182.36,18.22Z"/><path class="cls-1" d="M192.58,16.45c.07,0,.09,0,.11.12l.24,1.06c0,.14.21.09.26,0a3.62,3.62,0,0,1,3.09-1.44c3.42,0,5.14,2.5,5.14,5.57v6.49c0,.07,0,.11-.12.11h-2a.11.11,0,0,1-.12-.11V21.78c0-1.79-.8-3.56-3.14-3.56-2,0-3.11,1.72-3.11,3.56v6.49a.11.11,0,0,1-.12.11h-2a.11.11,0,0,1-.12-.11V16.57a.11.11,0,0,1,.12-.12Z"/></svg>