
<svg id="outline" xmlns="http://www.w3.org/2000/svg" viewBox="0 0 16 16">
  <path fill="#fff" d="M14.94,4a.23.23,0,0,0-.24-.37,7.4,7.4,0,0,1-1,.22,3.16,3.16,0,0,0,1.07-1.08.23.23,0,0,0-.29-.33,6,6,0,0,1-1.26.42A.22.22,0,0,1,13,2.77,3.09,3.09,0,0,0,7.74,5.38a.23.23,0,0,1-.25.27A8.74,8.74,0,0,1,1.65,2.71a.23.23,0,0,0-.39.07A3.08,3.08,0,0,0,2.38,6.57a3.13,3.13,0,0,1-1.06-.22A.23.23,0,0,0,1,6.59,3.11,3.11,0,0,0,3.46,9.25a2.88,2.88,0,0,1-1,.1.23.23,0,0,0-.22.34,3.09,3.09,0,0,0,2.16,1.7.23.23,0,0,1,.06.42,6.12,6.12,0,0,1-3.13,1,.23.23,0,0,0-.1.43,8.68,8.68,0,0,0,3.9.92A8.74,8.74,0,0,0,13.9,5,.22.22,0,0,1,14,4.86,5.79,5.79,0,0,0,14.94,4Z"/>
</svg>
