<svg id="stroke" xmlns="http://www.w3.org/2000/svg" viewBox="0 0 24 24">
  <path fill="#fff" d="M22.82,6.8l-.95-.7c0-.15,0-.29,0-.44L22.74,5a.44.44,0,0,0,.15-.53l-.44-1.05A.44.44,0,0,0,22,3.16l-1.18.17c-.1-.1-.2-.2-.31-.29L20.65,2a.44.44,0,0,0-.27-.48L19.33,1a.47.47,0,0,0-.53.15l-.7,1h-.44L17,1.26a.44.44,0,0,0-.53-.15l-1.05.44a.44.44,0,0,0-.27.47l.17,1.18c-.1.1-.2.2-.29.31L14,3.35a.44.44,0,0,0-.48.27l-.44,1a.47.47,0,0,0,.15.53l1,.7c0,.15,0,.29,0,.44L13.26,7a.44.44,0,0,0-.15.53l.44,1.05a.44.44,0,0,0,.47.27l1.18-.17c.1.1.2.2.31.29l-.16,1.09a.44.44,0,0,0,.27.48l1.05.44a.47.47,0,0,0,.53-.15l.7-1h.44l.65.88a.44.44,0,0,0,.53.15l1.05-.44a.44.44,0,0,0,.27-.47L20.67,8.8c.1-.1.2-.2.29-.31l1.09.16a.44.44,0,0,0,.48-.27L23,7.33A.47.47,0,0,0,22.82,6.8Zm-4.05,1a2,2,0,1,1,1.08-2.62A2,2,0,0,1,18.77,7.85Z"/>
  <path fill="#fff" d="M15.51,13.88l-1.69-.43c-.08-.2-.17-.39-.26-.58l.83-1.39a.65.65,0,0,0-.1-.79L13.1,9.5a.62.62,0,0,0-.79-.1l-1.5.89-.59-.23-.4-1.57A.64.64,0,0,0,9.19,8H7.51a.64.64,0,0,0-.63.49l-.43,1.69-.58.26L4.48,9.61a.65.65,0,0,0-.79.1L2.5,10.9a.62.62,0,0,0-.1.79l.89,1.5c-.08.19-.16.39-.23.59l-1.57.4a.64.64,0,0,0-.49.63v1.68a.64.64,0,0,0,.49.63l1.69.43c.08.2.17.39.26.58l-.83,1.39a.65.65,0,0,0,.1.79L3.9,21.5a.62.62,0,0,0,.79.1l1.5-.89.59.23.4,1.57a.64.64,0,0,0,.63.49H9.49a.64.64,0,0,0,.63-.49l.43-1.69.58-.26,1.39.83a.65.65,0,0,0,.79-.1L14.5,20.1a.62.62,0,0,0,.1-.79l-.89-1.5c.08-.19.16-.39.23-.59l1.57-.4a.64.64,0,0,0,.49-.63V14.51A.64.64,0,0,0,15.51,13.88ZM8.5,18A2.5,2.5,0,1,1,11,15.5,2.5,2.5,0,0,1,8.5,18Z"/>
</svg>
