
<svg id="outline" xmlns="http://www.w3.org/2000/svg" viewBox="0 0 24 24">
  <path fill="#2d3741" d="M14.26,22.89a3.06,3.06,0,0,0,3.52-1.59L12,19.75A3.06,3.06,0,0,0,14.26,22.89Z"/>
  <path fill="#2d3741" d="M20.84,13.3l.71-2.66a7.63,7.63,0,0,0-5-9.31A7.53,7.53,0,0,0,7.08,6.57L6.32,9.41l-.19.72a7.56,7.56,0,0,1-3.52,4.51.89.89,0,0,0,.24,1.62l8.79,2.35L20.42,21a.89.89,0,0,0,1-1.29A7.48,7.48,0,0,1,20.65,14ZM18.45,9h0A.49.49,0,0,1,18,8.51a3.19,3.19,0,0,0-1.34-2.73.51.51,0,0,1-.11-.7A.5.5,0,0,1,17.2,5a4.16,4.16,0,0,1,1.74,3.6A.49.49,0,0,1,18.45,9Z"/>
</svg>
