
<svg id="outline_layer_1_" data-name="outline (layer 1)" xmlns="http://www.w3.org/2000/svg" viewBox="0 0 1110 350">
  <rect fill="#2d3741" x="742.17" y="85" width="282.67" height="2" transform="translate(59.49 416.11) rotate(-27.39)"/>
  <rect fill="#2d3741" x="1032.5" y="18.84" width="2" height="280.32" transform="translate(-11.88 183.11) rotate(-10.07)"/>
  <rect fill="#2d3741" x="1048" y="1.2" width="2" height="100.6" transform="translate(371.99 854.44) rotate(-52.67)"/>
  <rect fill="#2d3741" x="500" y="120" width="203.66" height="2" transform="translate(343.21 677.74) rotate(-76.45)"/>
  <rect fill="#2d3741" x="739.83" y="279.05" width="203.34" height="2" transform="translate(-28.82 450.6) rotate(-29.49)"/>
  <rect fill="#2d3741" x="993" y="193.36" width="2" height="144.47" transform="translate(297.73 1023.08) rotate(-62.37)"/>
  <rect fill="#2d3741" x="843" y="95.75" width="2" height="190.59" transform="translate(308.03 870.44) rotate(-64.48)"/>
  <rect fill="#2d3741" x="417" y="21.5" width="208.66" height="2" transform="translate(-0.1 2.55) rotate(-0.28)"/>
  <rect fill="#2d3741" x="36.11" y="91.5" width="258.79" height="2" transform="translate(-17.53 43.03) rotate(-14.08)"/>
  <rect fill="#2d3741" x="339.43" y="77.05" width="117.14" height="2" transform="translate(207.87 436.3) rotate(-73.14)"/>
  <rect fill="#2d3741" x="478.5" y="69.89" width="2" height="215.32" transform="translate(123.52 544.6) rotate(-66.2)"/>
  <rect fill="#2d3741" x="335" y="39.58" width="2" height="115.94" transform="translate(48.45 296.87) rotate(-50.92)"/>
  <rect fill="#2d3741" x="585.5" y="-97.05" width="2" height="366.11" transform="translate(300.87 605.42) rotate(-69.54)"/>
  <rect fill="#2d3741" x="664.67" y="239.94" width="181.94" height="2" transform="translate(494.87 989.97) rotate(-88.49)"/>
  <rect fill="#2d3741" x="901.23" y="154.5" width="216.54" height="2" transform="translate(162.59 726.48) rotate(-42.74)"/>
  <rect fill="#2d3741" x="664.5" y="172.44" width="2" height="206.22" transform="translate(79.6 694.52) rotate(-58.06)"/>
  <rect fill="#2d3741" x="752.21" y="313.6" width="306.57" height="2" transform="translate(-27.26 93.56) rotate(-5.83)"/>
  <rect fill="#2d3741" x="963.85" y="189.55" width="219.3" height="2" transform="translate(732.91 1226.26) rotate(-81.86)"/>
  <rect fill="#2d3741" x="856.33" y="-181.6" width="2" height="467.21" transform="translate(695.66 895.55) rotate(-82.62)"/>
  <rect fill="#2d3741" x="817" y="16.89" width="2" height="486.31" transform="translate(429.97 1025.67) rotate(-80.76)"/>
  <rect fill="#2d3741" x="288.01" y="40.5" width="129.99" height="2" transform="translate(3.79 107.73) rotate(-17.44)"/>
  <rect fill="#2d3741" x="495.5" y="-7.12" width="2" height="257.24" transform="translate(35.41 342.12) rotate(-39.32)"/>
  <rect fill="#2d3741" x="754.44" y="115.5" width="338.12" height="2" transform="translate(-4.33 191.02) rotate(-11.78)"/>
  <path fill="#6885ad" d="M860,0H716a8,8,0,0,0-8,8V93a8,8,0,0,0,8,8h23l20,20V101H860a8,8,0,0,0,8-8V8A8,8,0,0,0,860,0Z"/>
  <path fill="#2d3741" d="M860,2a6,6,0,0,1,6,6V93a6,6,0,0,1-6,6H757v17.17L740.41,99.59l-.58-.59H716a6,6,0,0,1-6-6V8a6,6,0,0,1,6-6H860m0-2H716a8,8,0,0,0-8,8V93a8,8,0,0,0,8,8h23l20,20V101H860a8,8,0,0,0,8-8V8a8,8,0,0,0-8-8Z"/>
  <path fill="#2d3741" d="M840,29H736a1,1,0,0,1,0-2H840a1,1,0,0,1,0,2Z"/>
  <path fill="#2d3741" d="M840,44H736a1,1,0,0,1,0-2H840a1,1,0,0,1,0,2Z"/>
  <path fill="#2d3741" d="M840,59H736a1,1,0,0,1,0-2H840a1,1,0,0,1,0,2Z"/>
  <path fill="#2d3741" d="M800,74H736a1,1,0,0,1,0-2h64a1,1,0,0,1,0,2Z"/>
  <path fill="#d5e1f2" d="M670,83H546a8,8,0,0,0-8,8v70a8,8,0,0,0,8,8h13l20,20V169h91a8,8,0,0,0,8-8V91A8,8,0,0,0,670,83Z"/>
  <path fill="#2d3741" d="M670,85a6,6,0,0,1,6,6v70a6,6,0,0,1-6,6H577v17.17l-16.59-16.58-.58-.59H546a6,6,0,0,1-6-6V91a6,6,0,0,1,6-6H670m0-2H546a8,8,0,0,0-8,8v70a8,8,0,0,0,8,8h13l20,20V169h91a8,8,0,0,0,8-8V91a8,8,0,0,0-8-8Z"/>
  <line fill="#d5e1f2" x1="650" y1="111" x2="566" y2="111"/>
  <path fill="#2d3741" d="M650,112H566a1,1,0,0,1,0-2h84a1,1,0,0,1,0,2Z"/>
  <line fill="#d5e1f2" x1="650" y1="126" x2="566" y2="126"/>
  <path fill="#2d3741" d="M650,127H566a1,1,0,0,1,0-2h84a1,1,0,0,1,0,2Z"/>
  <line fill="#d5e1f2" x1="602" y1="141" x2="566" y2="141"/>
  <path fill="#2d3741" d="M602,142H566a1,1,0,0,1,0-2h36a1,1,0,0,1,0,2Z"/>
  <path fill="#d5e1f2" d="M142,0H8A8,8,0,0,0,0,8V63a8,8,0,0,0,8,8H21L41,91V71H142a8,8,0,0,0,8-8V8A8,8,0,0,0,142,0Z"/>
  <path fill="#2d3741" d="M142,2a6,6,0,0,1,6,6V63a6,6,0,0,1-6,6H39V86.17L22.41,69.59,21.83,69H8a6,6,0,0,1-6-6V8A6,6,0,0,1,8,2H142m0-2H8A8,8,0,0,0,0,8V63a8,8,0,0,0,8,8H21L41,91V71H142a8,8,0,0,0,8-8V8a8,8,0,0,0-8-8Z"/>
  <line fill="#d5e1f2" x1="122" y1="28" x2="28" y2="28"/>
  <path fill="#2d3741" d="M122,29H28a1,1,0,0,1,0-2h94a1,1,0,0,1,0,2Z"/>
  <line fill="#d5e1f2" x1="92" y1="43" x2="28" y2="43"/>
  <path fill="#2d3741" d="M92,44H28a1,1,0,0,1,0-2H92a1,1,0,0,1,0,2Z"/>
  <circle fill="#6885ad" cx="415" cy="22" r="22"/>
  <path fill="#2d3741" d="M415,2a20,20,0,1,1-20,20A20,20,0,0,1,415,2m0-2a22,22,0,1,0,22,22A22,22,0,0,0,415,0Z"/>
  <circle fill="#2d3741" cx="415" cy="16.1" r="8"/>
  <path fill="#2d3741" d="M421,26.1H409a6,6,0,0,0-6,6v8.33a22,22,0,0,0,24,0V32.1A6,6,0,0,0,421,26.1Z"/>
  <path fill="#2d3741" d="M415,2a20,20,0,1,1-20,20A20,20,0,0,1,415,2m0-2a22,22,0,1,0,22,22A22,22,0,0,0,415,0Z"/>
  <circle fill="#d5e1f2" cx="291" cy="61" r="22"/>
  <path fill="#2d3741" d="M291,41a20,20,0,1,1-20,20,20,20,0,0,1,20-20m0-2a22,22,0,1,0,22,22,22,22,0,0,0-22-22Z"/>
  <circle fill="#2d3741" cx="291" cy="55.1" r="8"/>
  <path fill="#2d3741" d="M297,65.1H285a6,6,0,0,0-6,6v8.33a22,22,0,0,0,24,0V71.1A6,6,0,0,0,297,65.1Z"/>
  <path fill="#2d3741" d="M291,41a20,20,0,1,1-20,20,20,20,0,0,1,20-20m0-2a22,22,0,1,0,22,22,22,22,0,0,0-22-22Z"/>
  <circle fill="#d5e1f2" cx="40" cy="124" r="22"/>
  <path fill="#2d3741" d="M40,104a20,20,0,1,1-20,20,20,20,0,0,1,20-20m0-2a22,22,0,1,0,22,22,22,22,0,0,0-22-22Z"/>
  <circle fill="#2d3741" cx="40" cy="118.1" r="8"/>
  <path fill="#2d3741" d="M46,128.1H34a6,6,0,0,0-6,6v8.33a22,22,0,0,0,24,0V134.1A6,6,0,0,0,46,128.1Z"/>
  <path fill="#2d3741" d="M40,104a20,20,0,1,1-20,20,20,20,0,0,1,20-20m0-2a22,22,0,1,0,22,22,22,22,0,0,0-22-22Z"/>
  <circle fill="#d5e1f2" cx="381" cy="133" r="22"/>
  <path fill="#2d3741" d="M381,113a20,20,0,1,1-20,20,20,20,0,0,1,20-20m0-2a22,22,0,1,0,22,22,22,22,0,0,0-22-22Z"/>
  <circle fill="#2d3741" cx="381" cy="127.1" r="8"/>
  <path fill="#2d3741" d="M387,137.1H375a6,6,0,0,0-6,6v8.33a22,22,0,0,0,24,0V143.1A6,6,0,0,0,387,137.1Z"/>
  <path fill="#2d3741" d="M381,113a20,20,0,1,1-20,20,20,20,0,0,1,20-20m0-2a22,22,0,1,0,22,22,22,22,0,0,0-22-22Z"/>
  <circle fill="#6885ad" cx="578" cy="221" r="22"/>
  <path fill="#2d3741" d="M578,201a20,20,0,1,1-20,20,20,20,0,0,1,20-20m0-2a22,22,0,1,0,22,22,22,22,0,0,0-22-22Z"/>
  <circle fill="#2d3741" cx="578" cy="215.1" r="8"/>
  <path fill="#2d3741" d="M584,225.1H572a6,6,0,0,0-6,6v8.33a22,22,0,0,0,24,0V231.1A6,6,0,0,0,584,225.1Z"/>
  <path fill="#2d3741" d="M578,201a20,20,0,1,1-20,20,20,20,0,0,1,20-20m0-2a22,22,0,1,0,22,22,22,22,0,0,0-22-22Z"/>
  <circle fill="#d5e1f2" cx="758" cy="151" r="22"/>
  <path fill="#2d3741" d="M758,131a20,20,0,1,1-20,20,20,20,0,0,1,20-20m0-2a22,22,0,1,0,22,22,22,22,0,0,0-22-22Z"/>
  <circle fill="#2d3741" cx="758" cy="145.1" r="8"/>
  <path fill="#2d3741" d="M764,155.1H752a6,6,0,0,0-6,6v8.33a22,22,0,0,0,24,0V161.1A6,6,0,0,0,764,155.1Z"/>
  <path fill="#2d3741" d="M758,131a20,20,0,1,1-20,20,20,20,0,0,1,20-20m0-2a22,22,0,1,0,22,22,22,22,0,0,0-22-22Z"/>
  <circle fill="#6885ad" cx="930" cy="230" r="22"/>
  <path fill="#2d3741" d="M930,210a20,20,0,1,1-20,20,20,20,0,0,1,20-20m0-2a22,22,0,1,0,22,22,22,22,0,0,0-22-22Z"/>
  <circle fill="#2d3741" cx="930" cy="224.1" r="8"/>
  <path fill="#2d3741" d="M936,234.1H924a6,6,0,0,0-6,6v8.33a22,22,0,0,0,24,0V240.1A6,6,0,0,0,936,234.1Z"/>
  <path fill="#2d3741" d="M930,210a20,20,0,1,1-20,20,20,20,0,0,1,20-20m0-2a22,22,0,1,0,22,22,22,22,0,0,0-22-22Z"/>
  <circle fill="#d5e1f2" cx="625.66" cy="22" r="22"/>
  <path fill="#2d3741" d="M625.66,2a20,20,0,1,1-20,20,20,20,0,0,1,20-20m0-2a22,22,0,1,0,22,22,22,22,0,0,0-22-22Z"/>
  <circle fill="#2d3741" cx="625.66" cy="16.1" r="8"/>
  <path fill="#2d3741" d="M631.66,26.1h-12a6,6,0,0,0-6,6v8.33a22,22,0,0,0,24,0V32.1A6,6,0,0,0,631.66,26.1Z"/>
  <path fill="#2d3741" d="M625.66,2a20,20,0,1,1-20,20,20,20,0,0,1,20-20m0-2a22,22,0,1,0,22,22,22,22,0,0,0-22-22Z"/>
  <circle fill="#d5e1f2" cx="753" cy="328" r="22"/>
  <path fill="#2d3741" d="M753,308a20,20,0,1,1-20,20,20,20,0,0,1,20-20m0-2a22,22,0,1,0,22,22,22,22,0,0,0-22-22Z"/>
  <circle fill="#2d3741" cx="753" cy="322.1" r="8"/>
  <path fill="#2d3741" d="M759,332.1H747a6,6,0,0,0-6,6v8.33a22,22,0,0,0,24,0V338.1A6,6,0,0,0,759,332.1Z"/>
  <path fill="#2d3741" d="M753,308a20,20,0,1,1-20,20,20,20,0,0,1,20-20m0-2a22,22,0,1,0,22,22,22,22,0,0,0-22-22Z"/>
  <circle fill="#6885ad" cx="1088" cy="82" r="22"/>
  <path fill="#2d3741" d="M1088,62a20,20,0,1,1-20,20,20,20,0,0,1,20-20m0-2a22,22,0,1,0,22,22,22,22,0,0,0-22-22Z"/>
  <circle fill="#2d3741" cx="1088" cy="76.1" r="8"/>
  <path fill="#2d3741" d="M1094,86.1h-12a6,6,0,0,0-6,6v8.33a22,22,0,0,0,24,0V92.1A6,6,0,0,0,1094,86.1Z"/>
  <path fill="#2d3741" d="M1088,62a20,20,0,1,1-20,20,20,20,0,0,1,20-20m0-2a22,22,0,1,0,22,22,22,22,0,0,0-22-22Z"/>
  <circle fill="#d5e1f2" cx="1058" cy="297" r="22"/>
  <path fill="#2d3741" d="M1058,277a20,20,0,1,1-20,20,20,20,0,0,1,20-20m0-2a22,22,0,1,0,22,22,22,22,0,0,0-22-22Z"/>
  <circle fill="#2d3741" cx="1058" cy="291.1" r="8"/>
  <path fill="#2d3741" d="M1064,301.1h-12a6,6,0,0,0-6,6v8.33a22,22,0,0,0,24,0V307.1A6,6,0,0,0,1064,301.1Z"/>
  <path fill="#2d3741" d="M1058,277a20,20,0,1,1-20,20,20,20,0,0,1,20-20m0-2a22,22,0,1,0,22,22,22,22,0,0,0-22-22Z"/>
  <circle fill="#d5e1f2" cx="1009" cy="22" r="22"/>
  <path fill="#2d3741" d="M1009,2a20,20,0,1,1-20,20,20,20,0,0,1,20-20m0-2a22,22,0,1,0,22,22,22,22,0,0,0-22-22Z"/>
  <circle fill="#2d3741" cx="1009" cy="16.1" r="8"/>
  <path fill="#2d3741" d="M1015,26.1h-12a6,6,0,0,0-6,6v8.33a22,22,0,0,0,24,0V32.1A6,6,0,0,0,1015,26.1Z"/>
  <path fill="#2d3741" d="M1009,2a20,20,0,1,1-20,20,20,20,0,0,1,20-20m0-2a22,22,0,1,0,22,22,22,22,0,0,0-22-22Z"/>
  <path fill="#d5e1f2" d="M848,77H962a8,8,0,0,1,8,8v85a8,8,0,0,1-8,8H949l-20,20V178H848a8,8,0,0,1-8-8V85A8,8,0,0,1,848,77Z"/>
  <path fill="#2d3741" d="M962,79a6,6,0,0,1,6,6v85a6,6,0,0,1-6,6H948.17l-.58.59L931,193.17V176H848a6,6,0,0,1-6-6V85a6,6,0,0,1,6-6H962m0-2H848a8,8,0,0,0-8,8v85a8,8,0,0,0,8,8h81v20l20-20h13a8,8,0,0,0,8-8V85a8,8,0,0,0-8-8Z"/>
  <path fill="#2d3741" d="M942,106H868a1,1,0,0,1,0-2h74a1,1,0,0,1,0,2Z"/>
  <path fill="#2d3741" d="M942,121H868a1,1,0,0,1,0-2h74a1,1,0,0,1,0,2Z"/>
  <path fill="#2d3741" d="M942,136H868a1,1,0,0,1,0-2h74a1,1,0,0,1,0,2Z"/>
  <path fill="#2d3741" d="M912,151H868a1,1,0,0,1,0-2h44a1,1,0,0,1,0,2Z"/>
  <path fill="#6885ad" d="M109,53v70a8,8,0,0,0,8,8H231a8,8,0,0,0,8-8V80l20-20H239V53a8,8,0,0,0-8-8H117A8,8,0,0,0,109,53Z"/>
  <path fill="#2d3741" d="M231,47a6,6,0,0,1,6,6v9h17.17L237.59,78.59l-.59.58V123a6,6,0,0,1-6,6H117a6,6,0,0,1-6-6V53a6,6,0,0,1,6-6H231m0-2H117a8,8,0,0,0-8,8v70a8,8,0,0,0,8,8H231a8,8,0,0,0,8-8V80l20-20H239V53a8,8,0,0,0-8-8Z"/>
  <path fill="#2d3741" d="M211,74H137a1,1,0,0,1,0-2h74a1,1,0,0,1,0,2Z"/>
  <path fill="#2d3741" d="M211,89H137a1,1,0,0,1,0-2h74a1,1,0,0,1,0,2Z"/>
  <path fill="#2d3741" d="M181,104H137a1,1,0,0,1,0-2h44a1,1,0,0,1,0,2Z"/>
</svg>
