<svg id="outline_layer_1_" data-name="outline (layer 1)" xmlns="http://www.w3.org/2000/svg" viewBox="0 0 1110 320">
  <rect fill="#2d3741" x="980.54" y="170.21" width="2" height="135.57" transform="translate(1.99 484.06) rotate(-27.73)"/>
  <rect fill="#2d3741" x="979.38" y="236.5" width="142.31" height="2" transform="translate(295.77 1005.85) rotate(-58.25)"/>
  <rect fill="#2d3741" x="933.07" y="196.49" width="2" height="163.01" transform="translate(435.37 1115.3) rotate(-75.8)"/>
  <rect fill="#2d3741" x="840.45" y="217" width="124.15" height="2" transform="translate(71.95 632.99) rotate(-40.13)"/>
  <rect fill="#2d3741" x="800.53" y="127.97" width="2" height="152.07" transform="translate(88.66 623.39) rotate(-44.75)"/>
  <rect fill="#2d3741" x="286.96" y="135" width="110.07" height="2" transform="translate(-25.54 155.43) rotate(-24.71)"/>
  <rect fill="#2d3741" x="165" y="14.29" width="2" height="254.42" transform="translate(3.01 286.46) rotate(-82.09)"/>
  <rect fill="#2d3741" x="244.8" y="106.5" width="103.39" height="2" transform="translate(163.63 393.53) rotate(-85.01)"/>
  <rect fill="#2d3741" x="732.71" y="85" width="291.58" height="2" transform="translate(53.87 400.88) rotate(-26.49)"/>
  <rect fill="#2d3741" x="1047.5" y="11.57" width="2" height="174.86" transform="translate(68.38 484.37) rotate(-26.86)"/>
  <rect fill="#2d3741" x="1048" y="3.02" width="2" height="106.96" transform="translate(310.43 803.57) rotate(-48.41)"/>
  <rect fill="#2d3741" x="491.05" y="103.5" width="191.91" height="2" transform="translate(197.27 555.72) rotate(-59.28)"/>
  <rect fill="#2d3741" x="950" y="178.55" width="138" height="2" transform="translate(-1.2 6.97) rotate(-0.39)"/>
  <rect fill="#2d3741" x="848" y="62.89" width="2" height="204.22" transform="translate(561.07 980.55) rotate(-81.55)"/>
  <rect fill="#2d3741" x="467" y="21.5" width="169" height="2" transform="translate(-0.12 3.23) rotate(-0.34)"/>
  <rect fill="#2d3741" x="35.64" y="89" width="269.71" height="2" transform="translate(-17.17 45.86) rotate(-14.59)"/>
  <rect fill="#2d3741" x="368.93" y="67.05" width="118.14" height="2" transform="translate(106.92 359.11) rotate(-51.23)"/>
  <rect fill="#2d3741" x="463.5" y="68.78" width="2" height="164.53" transform="translate(120.9 498.2) rotate(-63.31)"/>
  <rect fill="#2d3741" x="345" y="31.49" width="2" height="107.12" transform="translate(86.9 329.62) rotate(-57.16)"/>
  <rect fill="#2d3741" x="605.5" y="-69.3" width="2" height="310.6" transform="translate(278.2 603.16) rotate(-65.66)"/>
  <rect fill="#2d3741" x="938.06" y="133.45" width="162.88" height="2" transform="matrix(0.85, -0.52, 0.52, 0.85, 79.43, 551.26)"/>
  <rect fill="#2d3741" x="536.29" y="168" width="213.41" height="2" transform="translate(-19.8 116.94) rotate(-10.23)"/>
  <rect fill="#2d3741" x="1044.95" y="134.55" width="87.1" height="2" transform="translate(940.21 1222.38) rotate(-89.33)"/>
  <rect fill="#2d3741" x="861.5" y="-172.19" width="2" height="458.38" transform="translate(674.45 900.68) rotate(-81.22)"/>
  <rect fill="#2d3741" x="299.26" y="38" width="167.49" height="2" transform="translate(0.06 78.58) rotate(-11.72)"/>
  <rect fill="#2d3741" x="500.5" y="14.33" width="2" height="181.34" transform="translate(0.16 210.76) rotate(-23.74)"/>
  <rect fill="#2d3741" x="745.47" y="120.5" width="346.07" height="2" transform="translate(-7.25 158.75) rotate(-9.84)"/>
  <path fill="#d5e1f2" d="M600,50H506a8,8,0,0,0-8,8v70a8,8,0,0,0,8,8h33v20l20-20h41a8,8,0,0,0,8-8V58A8,8,0,0,0,600,50Z"/>
  <path fill="#2d3741" d="M600,52a6,6,0,0,1,6,6v70a6,6,0,0,1-6,6H558.17l-.58.59L541,151.17V134H506a6,6,0,0,1-6-6V58a6,6,0,0,1,6-6h94m0-2H506a8,8,0,0,0-8,8v70a8,8,0,0,0,8,8h33v20l20-20h41a8,8,0,0,0,8-8V58a8,8,0,0,0-8-8Z"/>
  <line fill="#d5e1f2" x1="580" y1="78" x2="526" y2="78"/>
  <path fill="#2d3741" d="M580,79H526a1,1,0,0,1,0-2h54a1,1,0,0,1,0,2Z"/>
  <line fill="#d5e1f2" x1="580" y1="93" x2="526" y2="93"/>
  <path fill="#2d3741" d="M580,94H526a1,1,0,0,1,0-2h54a1,1,0,0,1,0,2Z"/>
  <line fill="#d5e1f2" x1="562" y1="108" x2="526" y2="108"/>
  <path fill="#2d3741" d="M562,109H526a1,1,0,0,1,0-2h36a1,1,0,0,1,0,2Z"/>
  <path fill="#d5e1f2" d="M142,0H8A8,8,0,0,0,0,8V63a8,8,0,0,0,8,8H21L41,91V71H142a8,8,0,0,0,8-8V8A8,8,0,0,0,142,0Z"/>
  <path fill="#2d3741" d="M142,2a6,6,0,0,1,6,6V63a6,6,0,0,1-6,6H39V86.17L22.41,69.59,21.83,69H8a6,6,0,0,1-6-6V8A6,6,0,0,1,8,2H142m0-2H8A8,8,0,0,0,0,8V63a8,8,0,0,0,8,8H21L41,91V71H142a8,8,0,0,0,8-8V8a8,8,0,0,0-8-8Z"/>
  <line fill="#d5e1f2" x1="122" y1="28" x2="28" y2="28"/>
  <path fill="#2d3741" d="M122,29H28a1,1,0,0,1,0-2h94a1,1,0,0,1,0,2Z"/>
  <line fill="#d5e1f2" x1="92" y1="43" x2="28" y2="43"/>
  <path fill="#2d3741" d="M92,44H28a1,1,0,0,1,0-2H92a1,1,0,0,1,0,2Z"/>
  <circle fill="#6885ad" cx="465" cy="22" r="22"/>
  <path fill="#2d3741" d="M465,2a20,20,0,1,1-20,20A20,20,0,0,1,465,2m0-2a22,22,0,1,0,22,22A22,22,0,0,0,465,0Z"/>
  <circle fill="#2d3741" cx="465" cy="16.1" r="8"/>
  <path fill="#2d3741" d="M471,26.1H459a6,6,0,0,0-6,6v8.33a22,22,0,0,0,24,0V32.1A6,6,0,0,0,471,26.1Z"/>
  <path fill="#2d3741" d="M465,2a20,20,0,1,1-20,20A20,20,0,0,1,465,2m0-2a22,22,0,1,0,22,22A22,22,0,0,0,465,0Z"/>
  <circle fill="#d5e1f2" cx="301" cy="56" r="22"/>
  <path fill="#2d3741" d="M301,36a20,20,0,1,1-20,20,20,20,0,0,1,20-20m0-2a22,22,0,1,0,22,22,22,22,0,0,0-22-22Z"/>
  <circle fill="#2d3741" cx="301" cy="50.1" r="8"/>
  <path fill="#2d3741" d="M307,60.1H295a6,6,0,0,0-6,6v8.33a22,22,0,0,0,24,0V66.1A6,6,0,0,0,307,60.1Z"/>
  <path fill="#2d3741" d="M301,36a20,20,0,1,1-20,20,20,20,0,0,1,20-20m0-2a22,22,0,1,0,22,22,22,22,0,0,0-22-22Z"/>
  <circle fill="#d5e1f2" cx="40" cy="124" r="22"/>
  <path fill="#2d3741" d="M40,104a20,20,0,1,1-20,20,20,20,0,0,1,20-20m0-2a22,22,0,1,0,22,22,22,22,0,0,0-22-22Z"/>
  <circle fill="#2d3741" cx="40" cy="118.1" r="8"/>
  <path fill="#2d3741" d="M46,128.1H34a6,6,0,0,0-6,6v8.33a22,22,0,0,0,24,0V134.1A6,6,0,0,0,46,128.1Z"/>
  <path fill="#2d3741" d="M40,104a20,20,0,1,1-20,20,20,20,0,0,1,20-20m0-2a22,22,0,1,0,22,22,22,22,0,0,0-22-22Z"/>
  <circle fill="#d5e1f2" cx="391" cy="113" r="22"/>
  <path fill="#2d3741" d="M391,93a20,20,0,1,1-20,20,20,20,0,0,1,20-20m0-2a22,22,0,1,0,22,22,22,22,0,0,0-22-22Z"/>
  <circle fill="#2d3741" cx="391" cy="107.1" r="8"/>
  <path fill="#2d3741" d="M397,117.1H385a6,6,0,0,0-6,6v8.33a22,22,0,0,0,24,0V123.1A6,6,0,0,0,397,117.1Z"/>
  <path fill="#2d3741" d="M391,93a20,20,0,1,1-20,20,20,20,0,0,1,20-20m0-2a22,22,0,1,0,22,22,22,22,0,0,0-22-22Z"/>
  <circle fill="#d5e1f2" cx="855.06" cy="258" r="22"/>
  <path fill="#2d3741" d="M855.06,238a20,20,0,1,1-20,20,20,20,0,0,1,20-20m0-2a22,22,0,1,0,22,22,22,22,0,0,0-22-22Z"/>
  <circle fill="#2d3741" cx="855.06" cy="252.1" r="8"/>
  <path fill="#2d3741" d="M861.06,262.1h-12a6,6,0,0,0-6,6v8.33a22,22,0,0,0,24,0V268.1A6,6,0,0,0,861.06,262.1Z"/>
  <path fill="#2d3741" d="M855.06,238a20,20,0,1,1-20,20,20,20,0,0,1,20-20m0-2a22,22,0,1,0,22,22,22,22,0,0,0-22-22Z"/>
  <circle fill="#6885ad" cx="538" cy="188" r="22"/>
  <path fill="#2d3741" d="M538,168a20,20,0,1,1-20,20,20,20,0,0,1,20-20m0-2a22,22,0,1,0,22,22,22,22,0,0,0-22-22Z"/>
  <circle fill="#2d3741" cx="538" cy="182.1" r="8"/>
  <path fill="#2d3741" d="M544,192.1H532a6,6,0,0,0-6,6v8.33a22,22,0,0,0,24,0V198.1A6,6,0,0,0,544,192.1Z"/>
  <path fill="#2d3741" d="M538,168a20,20,0,1,1-20,20,20,20,0,0,1,20-20m0-2a22,22,0,1,0,22,22,22,22,0,0,0-22-22Z"/>
  <circle fill="#d5e1f2" cx="636" cy="22" r="22"/>
  <path fill="#2d3741" d="M636,2a20,20,0,1,1-20,20A20,20,0,0,1,636,2m0-2a22,22,0,1,0,22,22A22,22,0,0,0,636,0Z"/>
  <circle fill="#2d3741" cx="636" cy="16.1" r="8"/>
  <path fill="#2d3741" d="M642,26.1H630a6,6,0,0,0-6,6v8.33a22,22,0,0,0,24,0V32.1A6,6,0,0,0,642,26.1Z"/>
  <path fill="#2d3741" d="M636,2a20,20,0,1,1-20,20A20,20,0,0,1,636,2m0-2a22,22,0,1,0,22,22A22,22,0,0,0,636,0Z"/>
  <circle fill="#6885ad" cx="1088" cy="92" r="22"/>
  <path fill="#2d3741" d="M1088,72a20,20,0,1,1-20,20,20,20,0,0,1,20-20m0-2a22,22,0,1,0,22,22,22,22,0,0,0-22-22Z"/>
  <circle fill="#2d3741" cx="1088" cy="86.1" r="8"/>
  <path fill="#2d3741" d="M1094,96.1h-12a6,6,0,0,0-6,6v8.33a22,22,0,0,0,24,0V102.1A6,6,0,0,0,1094,96.1Z"/>
  <path fill="#2d3741" d="M1088,72a20,20,0,1,1-20,20,20,20,0,0,1,20-20m0-2a22,22,0,1,0,22,22,22,22,0,0,0-22-22Z"/>
  <circle fill="#d5e1f2" cx="1088" cy="177" r="22"/>
  <path fill="#2d3741" d="M1088,157a20,20,0,1,1-20,20,20,20,0,0,1,20-20m0-2a22,22,0,1,0,22,22,22,22,0,0,0-22-22Z"/>
  <circle fill="#2d3741" cx="1088" cy="171.1" r="8"/>
  <path fill="#2d3741" d="M1094,181.1h-12a6,6,0,0,0-6,6v8.33a22,22,0,0,0,24,0V187.1A6,6,0,0,0,1094,181.1Z"/>
  <path fill="#2d3741" d="M1088,157a20,20,0,1,1-20,20,20,20,0,0,1,20-20m0-2a22,22,0,1,0,22,22,22,22,0,0,0-22-22Z"/>
  <circle fill="#d5e1f2" cx="1009" cy="22" r="22"/>
  <path fill="#2d3741" d="M1009,2a20,20,0,1,1-20,20,20,20,0,0,1,20-20m0-2a22,22,0,1,0,22,22,22,22,0,0,0-22-22Z"/>
  <circle fill="#2d3741" cx="1009" cy="16.1" r="8"/>
  <path fill="#2d3741" d="M1015,26.1h-12a6,6,0,0,0-6,6v8.33a22,22,0,0,0,24,0V32.1A6,6,0,0,0,1015,26.1Z"/>
  <path fill="#2d3741" d="M1009,2a20,20,0,1,1-20,20,20,20,0,0,1,20-20m0-2a22,22,0,1,0,22,22,22,22,0,0,0-22-22Z"/>
  <circle fill="#6885ad" cx="292" cy="158" r="22"/>
  <path fill="#2d3741" d="M292,138a20,20,0,1,1-20,20,20,20,0,0,1,20-20m0-2a22,22,0,1,0,22,22,22,22,0,0,0-22-22Z"/>
  <circle fill="#2d3741" cx="292" cy="152.1" r="8"/>
  <path fill="#2d3741" d="M298,162.1H286a6,6,0,0,0-6,6v8.33a22,22,0,0,0,24,0V168.1A6,6,0,0,0,298,162.1Z"/>
  <path fill="#2d3741" d="M292,138a20,20,0,1,1-20,20,20,20,0,0,1,20-20m0-2a22,22,0,1,0,22,22,22,22,0,0,0-22-22Z"/>
  <path fill="#6885ad" d="M830,0H706a8,8,0,0,0-8,8V93a8,8,0,0,0,8,8h23l20,20V101h81a8,8,0,0,0,8-8V8A8,8,0,0,0,830,0Z"/>
  <path fill="#2d3741" d="M830,2a6,6,0,0,1,6,6V93a6,6,0,0,1-6,6H747v17.17L730.41,99.59l-.58-.59H706a6,6,0,0,1-6-6V8a6,6,0,0,1,6-6H830m0-2H706a8,8,0,0,0-8,8V93a8,8,0,0,0,8,8h23l20,20V101h81a8,8,0,0,0,8-8V8a8,8,0,0,0-8-8Z"/>
  <path fill="#2d3741" d="M810,29H726a1,1,0,0,1,0-2h84a1,1,0,0,1,0,2Z"/>
  <path fill="#2d3741" d="M810,44H726a1,1,0,0,1,0-2h84a1,1,0,0,1,0,2Z"/>
  <path fill="#2d3741" d="M810,59H726a1,1,0,0,1,0-2h84a1,1,0,0,1,0,2Z"/>
  <path fill="#2d3741" d="M770,74H726a1,1,0,0,1,0-2h44a1,1,0,0,1,0,2Z"/>
  <circle fill="#d5e1f2" cx="748" cy="151" r="22"/>
  <path fill="#2d3741" d="M748,131a20,20,0,1,1-20,20,20,20,0,0,1,20-20m0-2a22,22,0,1,0,22,22,22,22,0,0,0-22-22Z"/>
  <circle fill="#2d3741" cx="748" cy="145.1" r="8"/>
  <path fill="#2d3741" d="M754,155.1H742a6,6,0,0,0-6,6v8.33a22,22,0,0,0,24,0V161.1A6,6,0,0,0,754,155.1Z"/>
  <path fill="#2d3741" d="M748,131a20,20,0,1,1-20,20,20,20,0,0,1,20-20m0-2a22,22,0,1,0,22,22,22,22,0,0,0-22-22Z"/>
  <path fill="#d5e1f2" d="M868,56H982a8,8,0,0,1,8,8v55a8,8,0,0,1-8,8H969l-20,20V127H868a8,8,0,0,1-8-8V64A8,8,0,0,1,868,56Z"/>
  <path fill="#2d3741" d="M982,58a6,6,0,0,1,6,6v55a6,6,0,0,1-6,6H968.17l-.58.59L951,142.17V125H868a6,6,0,0,1-6-6V64a6,6,0,0,1,6-6H982m0-2H868a8,8,0,0,0-8,8v55a8,8,0,0,0,8,8h81v20l20-20h13a8,8,0,0,0,8-8V64a8,8,0,0,0-8-8Z"/>
  <path fill="#2d3741" d="M962,85H888a1,1,0,0,1,0-2h74a1,1,0,0,1,0,2Z"/>
  <path fill="#2d3741" d="M936,100H888a1,1,0,0,1,0-2h48a1,1,0,0,1,0,2Z"/>
  <circle fill="#6885ad" cx="950" cy="178" r="22"/>
  <path fill="#2d3741" d="M950,158a20,20,0,1,1-20,20,20,20,0,0,1,20-20m0-2a22,22,0,1,0,22,22,22,22,0,0,0-22-22Z"/>
  <circle fill="#2d3741" cx="950" cy="172.1" r="8"/>
  <path fill="#2d3741" d="M956,182.1H944a6,6,0,0,0-6,6v8.33a22,22,0,0,0,24,0V188.1A6,6,0,0,0,956,182.1Z"/>
  <path fill="#2d3741" d="M950,158a20,20,0,1,1-20,20,20,20,0,0,1,20-20m0-2a22,22,0,1,0,22,22,22,22,0,0,0-22-22Z"/>
  <circle fill="#6885ad" cx="1013.08" cy="298" r="22"/>
  <path fill="#2d3741" d="M1013.08,278a20,20,0,1,1-20,20,20,20,0,0,1,20-20m0-2a22,22,0,1,0,22,22,22,22,0,0,0-22-22Z"/>
  <circle fill="#2d3741" cx="1013.08" cy="292.1" r="8"/>
  <path fill="#2d3741" d="M1019.08,302.1h-12a6,6,0,0,0-6,6v8.33a22,22,0,0,0,24,0V308.1A6,6,0,0,0,1019.08,302.1Z"/>
  <path fill="#2d3741" d="M1013.08,278a20,20,0,1,1-20,20,20,20,0,0,1,20-20m0-2a22,22,0,1,0,22,22,22,22,0,0,0-22-22Z"/>
  <path fill="#6885ad" d="M119,48v70a8,8,0,0,0,8,8H241a8,8,0,0,0,8-8V75l20-20H249V48a8,8,0,0,0-8-8H127A8,8,0,0,0,119,48Z"/>
  <path fill="#2d3741" d="M241,42a6,6,0,0,1,6,6v9h17.17L247.59,73.59l-.59.58V118a6,6,0,0,1-6,6H127a6,6,0,0,1-6-6V48a6,6,0,0,1,6-6H241m0-2H127a8,8,0,0,0-8,8v70a8,8,0,0,0,8,8H241a8,8,0,0,0,8-8V75l20-20H249V48a8,8,0,0,0-8-8Z"/>
  <path fill="#2d3741" d="M221,69H147a1,1,0,0,1,0-2h74a1,1,0,0,1,0,2Z"/>
  <path fill="#2d3741" d="M221,84H147a1,1,0,0,1,0-2h74a1,1,0,0,1,0,2Z"/>
  <path fill="#2d3741" d="M191,99H147a1,1,0,0,1,0-2h44a1,1,0,0,1,0,2Z"/>
  <circle fill="#d5e1f2" cx="855.06" cy="258" r="22"/>
  <path fill="#2d3741" d="M855.06,238a20,20,0,1,1-20,20,20,20,0,0,1,20-20m0-2a22,22,0,1,0,22,22,22,22,0,0,0-22-22Z"/>
  <circle fill="#2d3741" cx="855.06" cy="252.1" r="8"/>
  <path fill="#2d3741" d="M861.06,262.1h-12a6,6,0,0,0-6,6v8.33a22,22,0,0,0,24,0V268.1A6,6,0,0,0,861.06,262.1Z"/>
  <path fill="#2d3741" d="M855.06,238a20,20,0,1,1-20,20,20,20,0,0,1,20-20m0-2a22,22,0,1,0,22,22,22,22,0,0,0-22-22Z"/>
</svg>
